<mxfile host="app.diagrams.net" agent="Mozilla/5.0 (Macintosh; Intel Mac OS X 10_15_7) AppleWebKit/537.36 (KHTML, like Gecko) Chrome/138.0.0.0 Safari/537.36" version="28.0.7">
  <diagram name="PÃ¡gina-1" id="dc4JQ7U9wpAmECb3Nxks">
    <mxGraphModel dx="2194" dy="1177" grid="1" gridSize="10" guides="1" tooltips="1" connect="1" arrows="1" fold="1" page="1" pageScale="1" pageWidth="827" pageHeight="1169" math="0" shadow="0">
      <root>
        <mxCell id="0" />
        <mxCell id="1" parent="0" />
        <mxCell id="FkXMbp2vn_qonFgKroc--3" style="edgeStyle=orthogonalEdgeStyle;rounded=0;orthogonalLoop=1;jettySize=auto;html=1;entryX=0;entryY=0.5;entryDx=0;entryDy=0;" edge="1" parent="1" source="FkXMbp2vn_qonFgKroc--1" target="FkXMbp2vn_qonFgKroc--4">
          <mxGeometry relative="1" as="geometry">
            <mxPoint x="250" y="400" as="targetPoint" />
          </mxGeometry>
        </mxCell>
        <mxCell id="FkXMbp2vn_qonFgKroc--6" style="edgeStyle=orthogonalEdgeStyle;rounded=0;orthogonalLoop=1;jettySize=auto;html=1;entryX=0;entryY=0.5;entryDx=0;entryDy=0;" edge="1" parent="1" source="FkXMbp2vn_qonFgKroc--1" target="FkXMbp2vn_qonFgKroc--5">
          <mxGeometry relative="1" as="geometry" />
        </mxCell>
        <mxCell id="FkXMbp2vn_qonFgKroc--19" value="" style="edgeStyle=orthogonalEdgeStyle;rounded=0;orthogonalLoop=1;jettySize=auto;html=1;" edge="1" parent="1" source="FkXMbp2vn_qonFgKroc--1" target="FkXMbp2vn_qonFgKroc--18">
          <mxGeometry relative="1" as="geometry" />
        </mxCell>
        <mxCell id="FkXMbp2vn_qonFgKroc--1" value="" style="rounded=1;whiteSpace=wrap;html=1;" vertex="1" parent="1">
          <mxGeometry x="110" y="170" width="430" height="80" as="geometry" />
        </mxCell>
        <mxCell id="FkXMbp2vn_qonFgKroc--2" value="&lt;span style=&quot;color: rgb(33, 110, 78); font-family: &amp;quot;Atlassian Mono&amp;quot;, ui-monospace, Menlo, &amp;quot;Segoe UI Mono&amp;quot;, &amp;quot;Ubuntu Mono&amp;quot;, monospace; font-size: 14px; text-align: start; white-space: pre; background-color: rgba(5, 21, 36, 0.06);&quot;&gt;5c7f7275-874e-4f97-961e-7737ec9a7a0i&lt;/span&gt;" style="text;html=1;align=center;verticalAlign=middle;whiteSpace=wrap;rounded=0;" vertex="1" parent="1">
          <mxGeometry x="300" y="195" width="60" height="30" as="geometry" />
        </mxCell>
        <mxCell id="FkXMbp2vn_qonFgKroc--8" value="" style="edgeStyle=orthogonalEdgeStyle;rounded=0;orthogonalLoop=1;jettySize=auto;html=1;" edge="1" parent="1" source="FkXMbp2vn_qonFgKroc--4" target="FkXMbp2vn_qonFgKroc--7">
          <mxGeometry relative="1" as="geometry" />
        </mxCell>
        <mxCell id="FkXMbp2vn_qonFgKroc--4" value="&lt;span style=&quot;color: rgb(33, 110, 78); font-family: &amp;quot;Atlassian Mono&amp;quot;, ui-monospace, Menlo, &amp;quot;Segoe UI Mono&amp;quot;, &amp;quot;Ubuntu Mono&amp;quot;, monospace; font-size: 14px; text-align: start; white-space: pre; background-color: rgba(5, 21, 36, 0.06);&quot;&gt;3000401966&lt;/span&gt;" style="rounded=1;whiteSpace=wrap;html=1;" vertex="1" parent="1">
          <mxGeometry x="380" y="290" width="120" height="60" as="geometry" />
        </mxCell>
        <mxCell id="FkXMbp2vn_qonFgKroc--10" value="" style="edgeStyle=orthogonalEdgeStyle;rounded=0;orthogonalLoop=1;jettySize=auto;html=1;" edge="1" parent="1" source="FkXMbp2vn_qonFgKroc--5" target="FkXMbp2vn_qonFgKroc--9">
          <mxGeometry relative="1" as="geometry" />
        </mxCell>
        <mxCell id="FkXMbp2vn_qonFgKroc--5" value="&lt;span style=&quot;color: rgb(33, 110, 78); font-family: &amp;quot;Atlassian Mono&amp;quot;, ui-monospace, Menlo, &amp;quot;Segoe UI Mono&amp;quot;, &amp;quot;Ubuntu Mono&amp;quot;, monospace; font-size: 14px; text-align: start; white-space: pre; background-color: rgba(5, 21, 36, 0.06);&quot;&gt;3000401969&lt;/span&gt;" style="rounded=1;whiteSpace=wrap;html=1;" vertex="1" parent="1">
          <mxGeometry x="380" y="380" width="120" height="60" as="geometry" />
        </mxCell>
        <mxCell id="FkXMbp2vn_qonFgKroc--17" value="" style="edgeStyle=orthogonalEdgeStyle;rounded=0;orthogonalLoop=1;jettySize=auto;html=1;" edge="1" parent="1" source="FkXMbp2vn_qonFgKroc--7" target="FkXMbp2vn_qonFgKroc--16">
          <mxGeometry relative="1" as="geometry" />
        </mxCell>
        <mxCell id="FkXMbp2vn_qonFgKroc--7" value="&lt;span style=&quot;color: rgb(33, 110, 78); font-family: &amp;quot;Atlassian Mono&amp;quot;, ui-monospace, Menlo, &amp;quot;Segoe UI Mono&amp;quot;, &amp;quot;Ubuntu Mono&amp;quot;, monospace; font-size: 14px; text-align: start; white-space: pre; background-color: rgba(5, 21, 36, 0.06);&quot;&gt;Sprite&lt;/span&gt;" style="rounded=1;whiteSpace=wrap;html=1;" vertex="1" parent="1">
          <mxGeometry x="580" y="290" width="120" height="60" as="geometry" />
        </mxCell>
        <mxCell id="FkXMbp2vn_qonFgKroc--15" value="" style="edgeStyle=orthogonalEdgeStyle;rounded=0;orthogonalLoop=1;jettySize=auto;html=1;" edge="1" parent="1" source="FkXMbp2vn_qonFgKroc--9" target="FkXMbp2vn_qonFgKroc--14">
          <mxGeometry relative="1" as="geometry" />
        </mxCell>
        <mxCell id="FkXMbp2vn_qonFgKroc--9" value="&lt;span style=&quot;color: rgb(33, 110, 78); font-family: &amp;quot;Atlassian Mono&amp;quot;, ui-monospace, Menlo, &amp;quot;Segoe UI Mono&amp;quot;, &amp;quot;Ubuntu Mono&amp;quot;, monospace; font-size: 14px; text-align: start; white-space: pre; background-color: rgba(5, 21, 36, 0.06);&quot;&gt;Fresca&lt;/span&gt;" style="rounded=1;whiteSpace=wrap;html=1;" vertex="1" parent="1">
          <mxGeometry x="580" y="380" width="120" height="60" as="geometry" />
        </mxCell>
        <mxCell id="FkXMbp2vn_qonFgKroc--14" value="&lt;div style=&quot;text-align: start;&quot;&gt;&lt;font face=&quot;Atlassian Mono, ui-monospace, Menlo, Segoe UI Mono, Ubuntu Mono, monospace&quot; color=&quot;#216e4e&quot;&gt;&lt;span style=&quot;font-size: 14px; white-space: pre; background-color: rgba(5, 21, 36, 0.06);&quot;&gt;RECHAZA&lt;/span&gt;&lt;/font&gt;&lt;/div&gt;" style="rounded=1;whiteSpace=wrap;html=1;" vertex="1" parent="1">
          <mxGeometry x="780" y="380" width="120" height="60" as="geometry" />
        </mxCell>
        <mxCell id="FkXMbp2vn_qonFgKroc--16" value="&lt;span style=&quot;color: rgb(33, 110, 78); font-family: &amp;quot;Atlassian Mono&amp;quot;, ui-monospace, Menlo, &amp;quot;Segoe UI Mono&amp;quot;, &amp;quot;Ubuntu Mono&amp;quot;, monospace; font-size: 14px; text-align: start; white-space: pre; background-color: rgba(5, 21, 36, 0.06);&quot;&gt;entregado&lt;/span&gt;" style="rounded=1;whiteSpace=wrap;html=1;" vertex="1" parent="1">
          <mxGeometry x="780" y="290" width="120" height="60" as="geometry" />
        </mxCell>
        <mxCell id="FkXMbp2vn_qonFgKroc--18" value="&lt;span style=&quot;color: rgb(33, 110, 78); font-family: &amp;quot;Atlassian Mono&amp;quot;, ui-monospace, Menlo, &amp;quot;Segoe UI Mono&amp;quot;, &amp;quot;Ubuntu Mono&amp;quot;, monospace; font-size: 14px; text-align: start; white-space: pre; background-color: rgba(5, 21, 36, 0.06);&quot;&gt;entregado parcial&lt;/span&gt;" style="rounded=1;whiteSpace=wrap;html=1;" vertex="1" parent="1">
          <mxGeometry x="770" y="170" width="200" height="80" as="geometry" />
        </mxCell>
        <mxCell id="FkXMbp2vn_qonFgKroc--20" value="" style="endArrow=none;html=1;rounded=0;fillColor=#f8cecc;strokeColor=#b85450;strokeWidth=2;" edge="1" parent="1">
          <mxGeometry width="50" height="50" relative="1" as="geometry">
            <mxPoint x="330" y="420" as="sourcePoint" />
            <mxPoint x="940" y="420" as="targetPoint" />
            <Array as="points">
              <mxPoint x="630" y="410" />
            </Array>
          </mxGeometry>
        </mxCell>
        <mxCell id="FkXMbp2vn_qonFgKroc--28" style="edgeStyle=orthogonalEdgeStyle;rounded=0;orthogonalLoop=1;jettySize=auto;html=1;entryX=0;entryY=0.5;entryDx=0;entryDy=0;" edge="1" parent="1" source="FkXMbp2vn_qonFgKroc--21" target="FkXMbp2vn_qonFgKroc--25">
          <mxGeometry relative="1" as="geometry" />
        </mxCell>
        <mxCell id="FkXMbp2vn_qonFgKroc--34" value="" style="edgeStyle=orthogonalEdgeStyle;rounded=0;orthogonalLoop=1;jettySize=auto;html=1;" edge="1" parent="1" source="FkXMbp2vn_qonFgKroc--21" target="FkXMbp2vn_qonFgKroc--33">
          <mxGeometry relative="1" as="geometry" />
        </mxCell>
        <mxCell id="FkXMbp2vn_qonFgKroc--21" value="" style="rounded=1;whiteSpace=wrap;html=1;" vertex="1" parent="1">
          <mxGeometry x="115" y="530" width="430" height="80" as="geometry" />
        </mxCell>
        <mxCell id="FkXMbp2vn_qonFgKroc--22" value="&lt;span style=&quot;color: rgb(33, 110, 78); font-family: &amp;quot;Atlassian Mono&amp;quot;, ui-monospace, Menlo, &amp;quot;Segoe UI Mono&amp;quot;, &amp;quot;Ubuntu Mono&amp;quot;, monospace; font-size: 14px; text-align: start; white-space: pre; background-color: rgba(5, 21, 36, 0.06);&quot;&gt;5c7f7275-874e-4f97-961e-7737ec9a7a0i&lt;/span&gt;" style="text;html=1;align=center;verticalAlign=middle;whiteSpace=wrap;rounded=0;" vertex="1" parent="1">
          <mxGeometry x="300" y="555" width="60" height="30" as="geometry" />
        </mxCell>
        <mxCell id="FkXMbp2vn_qonFgKroc--32" style="edgeStyle=orthogonalEdgeStyle;rounded=0;orthogonalLoop=1;jettySize=auto;html=1;entryX=0;entryY=0.5;entryDx=0;entryDy=0;" edge="1" parent="1" source="FkXMbp2vn_qonFgKroc--24" target="FkXMbp2vn_qonFgKroc--29">
          <mxGeometry relative="1" as="geometry" />
        </mxCell>
        <mxCell id="FkXMbp2vn_qonFgKroc--24" value="&lt;span style=&quot;color: rgb(33, 110, 78); font-family: &amp;quot;Atlassian Mono&amp;quot;, ui-monospace, Menlo, &amp;quot;Segoe UI Mono&amp;quot;, &amp;quot;Ubuntu Mono&amp;quot;, monospace; font-size: 14px; text-align: start; white-space: pre; background-color: rgba(5, 21, 36, 0.06);&quot;&gt;3000401969&lt;/span&gt;" style="rounded=1;whiteSpace=wrap;html=1;" vertex="1" parent="1">
          <mxGeometry x="114" y="1140" width="430" height="60" as="geometry" />
        </mxCell>
        <mxCell id="FkXMbp2vn_qonFgKroc--25" value="&lt;span style=&quot;color: rgb(33, 110, 78); font-family: &amp;quot;Atlassian Mono&amp;quot;, ui-monospace, Menlo, &amp;quot;Segoe UI Mono&amp;quot;, &amp;quot;Ubuntu Mono&amp;quot;, monospace; font-size: 14px; text-align: start; white-space: pre; background-color: rgba(5, 21, 36, 0.06);&quot;&gt;3000401966&lt;/span&gt;" style="rounded=1;whiteSpace=wrap;html=1;" vertex="1" parent="1">
          <mxGeometry x="400" y="650" width="120" height="60" as="geometry" />
        </mxCell>
        <mxCell id="FkXMbp2vn_qonFgKroc--26" value="&lt;span style=&quot;color: rgb(33, 110, 78); font-family: &amp;quot;Atlassian Mono&amp;quot;, ui-monospace, Menlo, &amp;quot;Segoe UI Mono&amp;quot;, &amp;quot;Ubuntu Mono&amp;quot;, monospace; font-size: 14px; text-align: start; white-space: pre; background-color: rgba(5, 21, 36, 0.06);&quot;&gt;10 Sprite&lt;/span&gt;" style="rounded=1;whiteSpace=wrap;html=1;" vertex="1" parent="1">
          <mxGeometry x="600" y="650" width="120" height="60" as="geometry" />
        </mxCell>
        <mxCell id="FkXMbp2vn_qonFgKroc--27" value="&lt;span style=&quot;color: rgb(33, 110, 78); font-family: &amp;quot;Atlassian Mono&amp;quot;, ui-monospace, Menlo, &amp;quot;Segoe UI Mono&amp;quot;, &amp;quot;Ubuntu Mono&amp;quot;, monospace; font-size: 14px; text-align: start; white-space: pre; background-color: rgba(5, 21, 36, 0.06);&quot;&gt;Cancelado&lt;/span&gt;" style="rounded=1;whiteSpace=wrap;html=1;" vertex="1" parent="1">
          <mxGeometry x="800" y="650" width="120" height="60" as="geometry" />
        </mxCell>
        <mxCell id="FkXMbp2vn_qonFgKroc--29" value="&lt;span style=&quot;color: rgb(33, 110, 78); font-family: &amp;quot;Atlassian Mono&amp;quot;, ui-monospace, Menlo, &amp;quot;Segoe UI Mono&amp;quot;, &amp;quot;Ubuntu Mono&amp;quot;, monospace; font-size: 14px; text-align: start; white-space: pre; background-color: rgba(5, 21, 36, 0.06);&quot;&gt;3000401969&lt;/span&gt;" style="rounded=1;whiteSpace=wrap;html=1;" vertex="1" parent="1">
          <mxGeometry x="424" y="1250" width="120" height="60" as="geometry" />
        </mxCell>
        <mxCell id="FkXMbp2vn_qonFgKroc--30" value="&lt;span style=&quot;color: rgb(33, 110, 78); font-family: &amp;quot;Atlassian Mono&amp;quot;, ui-monospace, Menlo, &amp;quot;Segoe UI Mono&amp;quot;, &amp;quot;Ubuntu Mono&amp;quot;, monospace; font-size: 14px; text-align: start; white-space: pre; background-color: rgba(5, 21, 36, 0.06);&quot;&gt;8 Sprite&lt;/span&gt;" style="rounded=1;whiteSpace=wrap;html=1;" vertex="1" parent="1">
          <mxGeometry x="590" y="1250" width="120" height="60" as="geometry" />
        </mxCell>
        <mxCell id="FkXMbp2vn_qonFgKroc--31" value="&lt;span style=&quot;color: rgb(33, 110, 78); font-family: &amp;quot;Atlassian Mono&amp;quot;, ui-monospace, Menlo, &amp;quot;Segoe UI Mono&amp;quot;, &amp;quot;Ubuntu Mono&amp;quot;, monospace; font-size: 14px; text-align: start; white-space: pre; background-color: rgba(5, 21, 36, 0.06);&quot;&gt;ENTREGADO&lt;/span&gt;" style="rounded=1;whiteSpace=wrap;html=1;" vertex="1" parent="1">
          <mxGeometry x="795" y="1250" width="120" height="60" as="geometry" />
        </mxCell>
        <mxCell id="FkXMbp2vn_qonFgKroc--33" value="&lt;meta charset=&quot;utf-8&quot;&gt;&lt;span style=&quot;color: rgb(33, 110, 78); font-family: &amp;quot;Atlassian Mono&amp;quot;, ui-monospace, Menlo, &amp;quot;Segoe UI Mono&amp;quot;, &amp;quot;Ubuntu Mono&amp;quot;, monospace; font-size: 14px; font-style: normal; font-variant-ligatures: normal; font-variant-caps: normal; font-weight: 400; letter-spacing: normal; orphans: 2; text-align: start; text-indent: 0px; text-transform: none; widows: 2; word-spacing: 0px; -webkit-text-stroke-width: 0px; white-space: pre; background-color: rgba(5, 21, 36, 0.06); text-decoration-thickness: initial; text-decoration-style: initial; text-decoration-color: initial; display: inline !important; float: none;&quot;&gt;Cancelado&lt;/span&gt;" style="rounded=1;whiteSpace=wrap;html=1;" vertex="1" parent="1">
          <mxGeometry x="625" y="530" width="430" height="80" as="geometry" />
        </mxCell>
        <mxCell id="FkXMbp2vn_qonFgKroc--35" style="edgeStyle=orthogonalEdgeStyle;rounded=0;orthogonalLoop=1;jettySize=auto;html=1;entryX=0;entryY=0.5;entryDx=0;entryDy=0;" edge="1" parent="1" source="FkXMbp2vn_qonFgKroc--37" target="FkXMbp2vn_qonFgKroc--39">
          <mxGeometry relative="1" as="geometry" />
        </mxCell>
        <mxCell id="FkXMbp2vn_qonFgKroc--36" value="" style="edgeStyle=orthogonalEdgeStyle;rounded=0;orthogonalLoop=1;jettySize=auto;html=1;" edge="1" parent="1" source="FkXMbp2vn_qonFgKroc--37" target="FkXMbp2vn_qonFgKroc--42">
          <mxGeometry relative="1" as="geometry" />
        </mxCell>
        <mxCell id="FkXMbp2vn_qonFgKroc--47" style="edgeStyle=orthogonalEdgeStyle;rounded=0;orthogonalLoop=1;jettySize=auto;html=1;entryX=0;entryY=0.5;entryDx=0;entryDy=0;" edge="1" parent="1" source="FkXMbp2vn_qonFgKroc--37" target="FkXMbp2vn_qonFgKroc--44">
          <mxGeometry relative="1" as="geometry" />
        </mxCell>
        <mxCell id="FkXMbp2vn_qonFgKroc--37" value="" style="rounded=1;whiteSpace=wrap;html=1;" vertex="1" parent="1">
          <mxGeometry x="110" y="810" width="430" height="80" as="geometry" />
        </mxCell>
        <mxCell id="FkXMbp2vn_qonFgKroc--38" value="&lt;span style=&quot;color: rgb(33, 110, 78); font-family: &amp;quot;Atlassian Mono&amp;quot;, ui-monospace, Menlo, &amp;quot;Segoe UI Mono&amp;quot;, &amp;quot;Ubuntu Mono&amp;quot;, monospace; font-size: 14px; text-align: start; white-space: pre; background-color: rgba(5, 21, 36, 0.06);&quot;&gt;5c7f7275-874e-4f97-961e-7737ec9a7a0i&lt;/span&gt;" style="text;html=1;align=center;verticalAlign=middle;whiteSpace=wrap;rounded=0;" vertex="1" parent="1">
          <mxGeometry x="295" y="835" width="60" height="30" as="geometry" />
        </mxCell>
        <mxCell id="FkXMbp2vn_qonFgKroc--39" value="&lt;span style=&quot;color: rgb(33, 110, 78); font-family: &amp;quot;Atlassian Mono&amp;quot;, ui-monospace, Menlo, &amp;quot;Segoe UI Mono&amp;quot;, &amp;quot;Ubuntu Mono&amp;quot;, monospace; font-size: 14px; text-align: start; white-space: pre; background-color: rgba(5, 21, 36, 0.06);&quot;&gt;3000401966&lt;/span&gt;" style="rounded=1;whiteSpace=wrap;html=1;" vertex="1" parent="1">
          <mxGeometry x="395" y="930" width="120" height="60" as="geometry" />
        </mxCell>
        <mxCell id="FkXMbp2vn_qonFgKroc--40" value="&lt;span style=&quot;color: rgb(33, 110, 78); font-family: &amp;quot;Atlassian Mono&amp;quot;, ui-monospace, Menlo, &amp;quot;Segoe UI Mono&amp;quot;, &amp;quot;Ubuntu Mono&amp;quot;, monospace; font-size: 14px; text-align: start; white-space: pre; background-color: rgba(5, 21, 36, 0.06);&quot;&gt;10 Sprite&lt;/span&gt;" style="rounded=1;whiteSpace=wrap;html=1;" vertex="1" parent="1">
          <mxGeometry x="595" y="930" width="120" height="60" as="geometry" />
        </mxCell>
        <mxCell id="FkXMbp2vn_qonFgKroc--41" value="&lt;span style=&quot;color: rgb(33, 110, 78); font-family: &amp;quot;Atlassian Mono&amp;quot;, ui-monospace, Menlo, &amp;quot;Segoe UI Mono&amp;quot;, &amp;quot;Ubuntu Mono&amp;quot;, monospace; font-size: 14px; text-align: start; white-space: pre; background-color: rgba(5, 21, 36, 0.06);&quot;&gt;Cancelado&lt;/span&gt;" style="rounded=1;whiteSpace=wrap;html=1;" vertex="1" parent="1">
          <mxGeometry x="795" y="930" width="120" height="60" as="geometry" />
        </mxCell>
        <mxCell id="FkXMbp2vn_qonFgKroc--42" value="&lt;span style=&quot;color: rgb(33, 110, 78); font-family: &amp;quot;Atlassian Mono&amp;quot;, ui-monospace, Menlo, &amp;quot;Segoe UI Mono&amp;quot;, &amp;quot;Ubuntu Mono&amp;quot;, monospace; font-size: 14px; font-style: normal; font-variant-ligatures: normal; font-variant-caps: normal; font-weight: 400; letter-spacing: normal; orphans: 2; text-align: start; text-indent: 0px; text-transform: none; widows: 2; word-spacing: 0px; -webkit-text-stroke-width: 0px; white-space: pre; background-color: rgba(5, 21, 36, 0.06); text-decoration-thickness: initial; text-decoration-style: initial; text-decoration-color: initial; float: none; display: inline !important;&quot;&gt;Entregado parcial&lt;/span&gt;" style="rounded=1;whiteSpace=wrap;html=1;" vertex="1" parent="1">
          <mxGeometry x="620" y="810" width="430" height="80" as="geometry" />
        </mxCell>
        <mxCell id="FkXMbp2vn_qonFgKroc--43" value="&lt;span style=&quot;color: rgb(33, 110, 78); font-family: &amp;quot;Atlassian Mono&amp;quot;, ui-monospace, Menlo, &amp;quot;Segoe UI Mono&amp;quot;, &amp;quot;Ubuntu Mono&amp;quot;, monospace; font-size: 14px; text-align: start; white-space: pre; background-color: rgba(5, 21, 36, 0.06);&quot;&gt;8 Sprite&lt;/span&gt;" style="rounded=1;whiteSpace=wrap;html=1;" vertex="1" parent="1">
          <mxGeometry x="595" y="1000" width="120" height="60" as="geometry" />
        </mxCell>
        <mxCell id="FkXMbp2vn_qonFgKroc--44" value="&lt;span style=&quot;color: rgb(33, 110, 78); font-family: &amp;quot;Atlassian Mono&amp;quot;, ui-monospace, Menlo, &amp;quot;Segoe UI Mono&amp;quot;, &amp;quot;Ubuntu Mono&amp;quot;, monospace; font-size: 14px; text-align: start; white-space: pre; background-color: rgba(5, 21, 36, 0.06);&quot;&gt;3000401969&lt;/span&gt;" style="rounded=1;whiteSpace=wrap;html=1;" vertex="1" parent="1">
          <mxGeometry x="395" y="1000" width="120" height="60" as="geometry" />
        </mxCell>
        <mxCell id="FkXMbp2vn_qonFgKroc--45" value="&lt;span style=&quot;color: rgb(33, 110, 78); font-family: &amp;quot;Atlassian Mono&amp;quot;, ui-monospace, Menlo, &amp;quot;Segoe UI Mono&amp;quot;, &amp;quot;Ubuntu Mono&amp;quot;, monospace; font-size: 14px; text-align: start; white-space: pre; background-color: rgba(5, 21, 36, 0.06);&quot;&gt;Entregado&lt;/span&gt;" style="rounded=1;whiteSpace=wrap;html=1;" vertex="1" parent="1">
          <mxGeometry x="795" y="1000" width="120" height="60" as="geometry" />
        </mxCell>
        <mxCell id="FkXMbp2vn_qonFgKroc--46" value="" style="endArrow=none;html=1;rounded=0;fillColor=#f8cecc;strokeColor=#b85450;strokeWidth=2;" edge="1" parent="1">
          <mxGeometry width="50" height="50" relative="1" as="geometry">
            <mxPoint x="360" y="970" as="sourcePoint" />
            <mxPoint x="970" y="970" as="targetPoint" />
            <Array as="points">
              <mxPoint x="660" y="960" />
            </Array>
          </mxGeometry>
        </mxCell>
      </root>
    </mxGraphModel>
  </diagram>
</mxfile>
